<?xml version="1.0" encoding="UTF-8" standalone="no"?>
<!-- Created with Inkscape (http://www.inkscape.org/) -->

<svg
   xmlns:dc="http://purl.org/dc/elements/1.1/"
   xmlns:cc="http://creativecommons.org/ns#"
   xmlns:rdf="http://www.w3.org/1999/02/22-rdf-syntax-ns#"
   xmlns:svg="http://www.w3.org/2000/svg"
   xmlns="http://www.w3.org/2000/svg"
   xmlns:sodipodi="http://sodipodi.sourceforge.net/DTD/sodipodi-0.dtd"
   xmlns:inkscape="http://www.inkscape.org/namespaces/inkscape"
   width="512"
   height="512"
   viewBox="0 0 511.99999 511.99999"
   id="svg4348"
   version="1.1"
   inkscape:version="0.91 r13725"
   sodipodi:docname="keywi.svg">
  <defs
     id="defs4350" />
  <sodipodi:namedview
     id="base"
     pagecolor="#ffffff"
     bordercolor="#666666"
     borderopacity="1.0"
     inkscape:pageopacity="0.0"
     inkscape:pageshadow="2"
     inkscape:zoom="0.35"
     inkscape:cx="9.7874214"
     inkscape:cy="138.47328"
     inkscape:document-units="px"
     inkscape:current-layer="layer1"
     showgrid="false"
     units="px"
     inkscape:window-width="1920"
     inkscape:window-height="1145"
     inkscape:window-x="0"
     inkscape:window-y="27"
     inkscape:window-maximized="1" />
  <metadata
     id="metadata4353">
    <rdf:RDF>
      <cc:Work
         rdf:about="">
        <dc:format>image/svg+xml</dc:format>
        <dc:type
           rdf:resource="http://purl.org/dc/dcmitype/StillImage" />
        <dc:title></dc:title>
      </cc:Work>
    </rdf:RDF>
  </metadata>
  <g
     inkscape:label="Layer 1"
     inkscape:groupmode="layer"
     id="layer1"
     transform="translate(0,-540.36219)">
    <g
       stroke-linecap="null"
       stroke-linejoin="null"
       id="g4"
       transform="matrix(2.8850953,0,0,2.9803003,-441.10444,354.12679)"
       style="stroke:#000000;stroke-dasharray:none">
      <g
         id="g6"
         inkscape:export-xdpi="268.19449"
         inkscape:export-ydpi="268.19449"
         inkscape:export-filename="/home/tobia/Workspace/Firefox/keepass/icons/keywi.png"
         style="stroke-width:5">
        <path
           transform="matrix(0.69429419,-0.71969131,0.71969131,0.69429419,-39.450901,239.64486)"
           d="m 183.36,122.68 c 0,-61.326 42.991,15.022 86.637,15.022 43.647,0 71.363,-76.348 71.363,-15.022 0,61.326 -35.354,111 -79,111 -43.646,0 -79,-49.674 -79,-111 z"
           vector-effect="non-scaling-stroke"
           id="path8"
           style="fill:#7f3f00;fill-opacity:1"
           inkscape:connector-curvature="0" />
        <ellipse
           transform="matrix(0.78212987,-0.62311545,0.62311545,0.78212987,-29.10961,164.9456)"
           cx="221.32001"
           cy="124.1"
           rx="76.319"
           ry="44.889999"
           id="ellipse10"
           style="fill:#007f00" />
        <ellipse
           transform="matrix(-0.67828793,-0.73479622,0.73479622,-0.67828793,240.12942,370.67464)"
           cx="201.21001"
           cy="132.77"
           rx="0.45432001"
           ry="4"
           id="ellipse12" />
        <ellipse
           transform="matrix(0.52830497,-0.84905468,0.84905468,0.52830497,1.5108444,259.45953)"
           cx="234.27"
           cy="128.37"
           rx="0.066037998"
           ry="2"
           id="ellipse14" />
      </g>
      <ellipse
         transform="matrix(0.72778473,0.68580565,-0.68580565,0.72778473,139.58746,-115.66972)"
         cx="215.5"
         cy="118"
         rx="7.5"
         ry="10"
         id="ellipse16"
         inkscape:export-xdpi="268.19449"
         inkscape:export-ydpi="268.19449"
         inkscape:export-filename="/home/tobia/Workspace/Firefox/keepass/icons/keywi.png"
         style="fill:#7fff00" />
      <ellipse
         transform="matrix(0.03844013,-0.99926091,0.99926091,0.03844013,120.59176,359.31995)"
         cx="247"
         cy="117"
         rx="2"
         ry="4"
         id="ellipse18"
         inkscape:export-xdpi="268.19449"
         inkscape:export-ydpi="268.19449"
         inkscape:export-filename="/home/tobia/Workspace/Firefox/keepass/icons/keywi.png" />
      <ellipse
         transform="matrix(0.87789941,0.47884509,-0.47884509,0.87789941,74.355521,-97.75401)"
         cx="228.86"
         cy="96.924004"
         rx="2.8827"
         ry="6.2442002"
         id="ellipse20"
         inkscape:export-xdpi="268.19449"
         inkscape:export-ydpi="268.19449"
         inkscape:export-filename="/home/tobia/Workspace/Firefox/keepass/icons/keywi.png" />
      <ellipse
         cx="202"
         cy="109"
         rx="2"
         ry="6"
         id="ellipse22"
         inkscape:export-xdpi="268.19449"
         inkscape:export-ydpi="268.19449"
         inkscape:export-filename="/home/tobia/Workspace/Firefox/keepass/icons/keywi.png" />
      <ellipse
         transform="matrix(0.98418324,0.17715345,-0.17715345,0.98418324,29.521092,-34.346998)"
         cx="207.11"
         cy="148.14999"
         rx="2.3893001"
         ry="6.4762998"
         id="ellipse24"
         inkscape:export-xdpi="268.19449"
         inkscape:export-ydpi="268.19449"
         inkscape:export-filename="/home/tobia/Workspace/Firefox/keepass/icons/keywi.png" />
      <ellipse
         transform="matrix(0,-1,1,0,64,310)"
         cx="187"
         cy="123"
         rx="2"
         ry="6"
         id="ellipse26"
         inkscape:export-xdpi="268.19449"
         inkscape:export-ydpi="268.19449"
         inkscape:export-filename="/home/tobia/Workspace/Firefox/keepass/icons/keywi.png" />
      <ellipse
         transform="matrix(0.98215619,-0.18806703,0.18806703,0.98215619,-14.50904,42.08015)"
         cx="214.5"
         cy="97.5"
         rx="1.5"
         ry="5.5"
         id="ellipse28"
         inkscape:export-xdpi="268.19449"
         inkscape:export-ydpi="268.19449"
         inkscape:export-filename="/home/tobia/Workspace/Firefox/keepass/icons/keywi.png" />
      <ellipse
         transform="matrix(0.576689,-0.81696377,0.81696377,0.576689,-11.798841,209.22897)"
         cx="196"
         cy="116"
         rx="2"
         ry="5"
         id="ellipse30"
         inkscape:export-xdpi="268.19449"
         inkscape:export-ydpi="268.19449"
         inkscape:export-filename="/home/tobia/Workspace/Firefox/keepass/icons/keywi.png" />
      <ellipse
         transform="matrix(0.82531066,-0.56467895,0.56467895,0.82531066,-38.7636,149.99763)"
         cx="223.05"
         cy="137.64999"
         rx="1.8489"
         ry="6"
         id="ellipse32"
         inkscape:export-xdpi="268.19449"
         inkscape:export-ydpi="268.19449"
         inkscape:export-filename="/home/tobia/Workspace/Firefox/keepass/icons/keywi.png" />
      <ellipse
         transform="matrix(-0.79999893,-0.60000143,0.60000143,-0.79999893,261.59958,385.20012)"
         cx="195"
         cy="149"
         rx="2"
         ry="6"
         id="ellipse34"
         inkscape:export-xdpi="268.19449"
         inkscape:export-ydpi="268.19449"
         inkscape:export-filename="/home/tobia/Workspace/Firefox/keepass/icons/keywi.png" />
      <ellipse
         transform="matrix(0.19611729,0.98058044,-0.98058044,0.19611729,296.3258,-137.4598)"
         cx="232"
         cy="112"
         rx="2"
         ry="4"
         id="ellipse36"
         inkscape:export-xdpi="268.19449"
         inkscape:export-ydpi="268.19449"
         inkscape:export-filename="/home/tobia/Workspace/Firefox/keepass/icons/keywi.png" />
      <ellipse
         transform="matrix(0.49614074,0.86824211,-0.86824211,0.49614074,216.71181,-157.43428)"
         cx="244"
         cy="108"
         rx="1.8489"
         ry="6"
         id="ellipse38"
         inkscape:export-xdpi="268.19449"
         inkscape:export-ydpi="268.19449"
         inkscape:export-filename="/home/tobia/Workspace/Firefox/keepass/icons/keywi.png" />
      <ellipse
         transform="matrix(-0.43145605,-0.90213396,0.90213396,-0.43145605,145.8942,361.94562)"
         cx="187"
         cy="135"
         rx="0.066037998"
         ry="2"
         id="ellipse40"
         inkscape:export-xdpi="268.19449"
         inkscape:export-ydpi="268.19449"
         inkscape:export-filename="/home/tobia/Workspace/Firefox/keepass/icons/keywi.png"
         style="stroke-width:5" />
      <path
         inkscape:connector-curvature="0"
         d="m 223.15263,204.96119 45.09309,-37.29675 c -0.8007,-3.67165 -0.72689,-7.62179 0.22353,-11.45306 3.45393,-13.92344 17.73264,-22.37591 31.86156,-18.8609 14.12891,3.515 22.79786,17.67643 19.34392,31.59986 -3.45392,13.92342 -17.73263,22.37589 -31.86155,18.86088 -0.7586,-0.18872 -1.42238,-0.35385 -2.15779,-0.63601 l -5.98671,5.05866 -3.6876,-3.39773 -4.47792,3.84661 -5.45769,-2.3499 -3.77197,3.03013 1.4644,8.30133 -3.06605,2.2136 -5.93182,-2.46785 -3.77196,3.03012 0.96927,4.20963 -2.00191,1.9823 -4.15122,-1.52881 -3.06603,2.2136 1.4539,6.31447 -2.59192,2.33156 -15.65663,-5.87932 41.24947,-34.38367 -2.85526,-2.69459 -41.8395,34.73293 z M 272.26224,157.155 c -2.94395,11.86761 4.4354,23.92237 16.47817,26.9184 12.04278,2.99601 24.19737,-4.19907 27.14132,-16.06669 2.94396,-11.86762 -4.43538,-23.92239 -16.47816,-26.91841 -12.04277,-2.99601 -24.19736,4.19908 -27.14133,16.0667 z m 2.96066,0.24048 c 2.61944,-10.55938 13.47596,-16.98605 24.19117,-14.3203 10.71524,2.66575 17.3065,13.43311 14.68707,23.99249 -2.61942,10.55938 -13.47595,16.98605 -24.19118,14.32031 -10.71522,-2.66575 -17.30648,-13.43312 -14.68706,-23.9925 z m 16.44694,-1.36501 c -1.01996,4.11163 1.55923,8.32494 5.73153,9.36293 4.1723,1.03798 8.4205,-1.4768 9.44046,-5.58841 1.01996,-4.11163 -1.55923,-8.32495 -5.73153,-9.36293 -4.1723,-1.038 -8.4205,1.47679 -9.44046,5.58841 z"
         id="path4"
         style="fill:#ffffff;fill-opacity:1;stroke:#152a00;stroke-width:0.48500001;stroke-miterlimit:4;stroke-dasharray:none;stroke-opacity:1"
         inkscape:export-xdpi="268.19449"
         inkscape:export-ydpi="268.19449"
         inkscape:export-filename="/home/tobia/Workspace/Firefox/keepass/icons/keywi.png" />
    </g>
  </g>
</svg>
